<svg xmlns="http://www.w3.org/2000/svg" viewBox="0 0 1024 1024" role="img" aria-labelledby="title desc">
  <title id="title">NoteMaker app icon</title>
  <desc id="desc">A minimal orange sampler with a lime active step on a charcoal background.</desc>
  <rect width="1024" height="1024" rx="224" fill="#151513"/>
  <rect x="116" y="132" width="792" height="760" rx="142" fill="#f18a36" stroke="#0d0d0b" stroke-width="30"/>
  <circle cx="176" cy="194" r="18" fill="#1c1c18"/>
  <circle cx="848" cy="194" r="18" fill="#1c1c18"/>
  <circle cx="176" cy="830" r="18" fill="#1c1c18"/>
  <circle cx="848" cy="830" r="18" fill="#1c1c18"/>
  <rect x="190" y="232" width="644" height="238" rx="62" fill="#26251f" stroke="#0d0d0b" stroke-width="22"/>
  <rect x="244" y="292" width="248" height="104" rx="28" fill="#e8ff7d"/>
  <rect x="532" y="292" width="70" height="104" rx="24" fill="#62a6d7"/>
  <rect x="628" y="292" width="152" height="104" rx="24" fill="#f0ead8"/>
  <rect x="204" y="548" width="132" height="132" rx="42" fill="#e8ff7d" stroke="#0d0d0b" stroke-width="20"/>
  <rect x="365" y="548" width="132" height="132" rx="42" fill="#ffd9a6" stroke="#0d0d0b" stroke-width="20"/>
  <rect x="527" y="548" width="132" height="132" rx="42" fill="#ffd9a6" stroke="#0d0d0b" stroke-width="20"/>
  <rect x="688" y="548" width="132" height="132" rx="42" fill="#26251f" stroke="#0d0d0b" stroke-width="20"/>
  <rect x="216" y="738" width="592" height="58" rx="29" fill="#26251f"/>
  <rect x="216" y="738" width="196" height="58" rx="29" fill="#e8ff7d"/>
</svg>
